<mxfile host="65bd71144e">
    <diagram id="r5xqCSkRzlYfatNVVIwW" name="Page-1">
        <mxGraphModel dx="625" dy="669" grid="1" gridSize="10" guides="1" tooltips="1" connect="1" arrows="1" fold="1" page="1" pageScale="1" pageWidth="1100" pageHeight="1700" math="0" shadow="0">
            <root>
                <mxCell id="0"/>
                <mxCell id="1" parent="0"/>
                <mxCell id="2" value="Category" style="rounded=1;whiteSpace=wrap;html=1;" parent="1" vertex="1">
                    <mxGeometry x="230" y="140" width="120" height="60" as="geometry"/>
                </mxCell>
                <mxCell id="3" value="Product" style="rounded=1;whiteSpace=wrap;html=1;" parent="1" vertex="1">
                    <mxGeometry x="230" y="420" width="120" height="60" as="geometry"/>
                </mxCell>
                <mxCell id="4" value="categorizes" style="rhombus;whiteSpace=wrap;html=1;" parent="1" vertex="1">
                    <mxGeometry x="250" y="260" width="80" height="80" as="geometry"/>
                </mxCell>
                <mxCell id="5" value="&lt;b&gt;&lt;u&gt;ID&lt;/u&gt;&lt;/b&gt;" style="ellipse;whiteSpace=wrap;html=1;" parent="1" vertex="1">
                    <mxGeometry x="50" y="130" width="120" height="80" as="geometry"/>
                </mxCell>
                <mxCell id="6" value="&lt;u&gt;Name&lt;/u&gt;" style="ellipse;whiteSpace=wrap;html=1;" parent="1" vertex="1">
                    <mxGeometry x="60" y="20" width="120" height="80" as="geometry"/>
                </mxCell>
                <mxCell id="7" value="Description" style="ellipse;whiteSpace=wrap;html=1;" parent="1" vertex="1">
                    <mxGeometry x="240" y="20" width="120" height="80" as="geometry"/>
                </mxCell>
                <mxCell id="8" value="Picture" style="ellipse;whiteSpace=wrap;html=1;" parent="1" vertex="1">
                    <mxGeometry x="420" y="20" width="120" height="80" as="geometry"/>
                </mxCell>
                <mxCell id="9" value="" style="endArrow=none;html=1;entryX=0;entryY=0.5;entryDx=0;entryDy=0;exitX=1;exitY=0.5;exitDx=0;exitDy=0;strokeWidth=3;" parent="1" source="5" target="2" edge="1">
                    <mxGeometry width="50" height="50" relative="1" as="geometry">
                        <mxPoint x="250" y="320" as="sourcePoint"/>
                        <mxPoint x="300" y="270" as="targetPoint"/>
                    </mxGeometry>
                </mxCell>
                <mxCell id="10" value="" style="endArrow=none;html=1;strokeWidth=3;entryX=0.983;entryY=0.713;entryDx=0;entryDy=0;entryPerimeter=0;exitX=0;exitY=0;exitDx=0;exitDy=0;" parent="1" source="2" target="6" edge="1">
                    <mxGeometry width="50" height="50" relative="1" as="geometry">
                        <mxPoint x="130" y="320" as="sourcePoint"/>
                        <mxPoint x="180" y="270" as="targetPoint"/>
                    </mxGeometry>
                </mxCell>
                <mxCell id="11" value="" style="endArrow=none;html=1;strokeWidth=1;exitX=0.5;exitY=0;exitDx=0;exitDy=0;" parent="1" source="2" target="7" edge="1">
                    <mxGeometry width="50" height="50" relative="1" as="geometry">
                        <mxPoint x="250" y="320" as="sourcePoint"/>
                        <mxPoint x="300" y="270" as="targetPoint"/>
                    </mxGeometry>
                </mxCell>
                <mxCell id="12" value="" style="endArrow=none;html=1;strokeWidth=1;entryX=1;entryY=0.25;entryDx=0;entryDy=0;exitX=0.275;exitY=0.975;exitDx=0;exitDy=0;exitPerimeter=0;" parent="1" source="8" target="2" edge="1">
                    <mxGeometry width="50" height="50" relative="1" as="geometry">
                        <mxPoint x="250" y="320" as="sourcePoint"/>
                        <mxPoint x="300" y="270" as="targetPoint"/>
                    </mxGeometry>
                </mxCell>
                <mxCell id="13" value="" style="endArrow=none;html=1;strokeWidth=1;entryX=0.5;entryY=1;entryDx=0;entryDy=0;exitX=0.5;exitY=0;exitDx=0;exitDy=0;" parent="1" source="4" target="2" edge="1">
                    <mxGeometry width="50" height="50" relative="1" as="geometry">
                        <mxPoint x="250" y="320" as="sourcePoint"/>
                        <mxPoint x="300" y="270" as="targetPoint"/>
                    </mxGeometry>
                </mxCell>
                <mxCell id="15" value="&lt;b&gt;&lt;u&gt;ID&lt;/u&gt;&lt;/b&gt;" style="ellipse;whiteSpace=wrap;html=1;" parent="1" vertex="1">
                    <mxGeometry x="60" y="410" width="120" height="80" as="geometry"/>
                </mxCell>
                <mxCell id="16" value="Name" style="ellipse;whiteSpace=wrap;html=1;" parent="1" vertex="1">
                    <mxGeometry x="230" y="510" width="120" height="80" as="geometry"/>
                </mxCell>
                <mxCell id="17" value="Discontinued?" style="ellipse;whiteSpace=wrap;html=1;" parent="1" vertex="1">
                    <mxGeometry x="400" y="410" width="120" height="80" as="geometry"/>
                </mxCell>
                <mxCell id="18" value="" style="endArrow=none;html=1;strokeWidth=3;exitX=1;exitY=0.5;exitDx=0;exitDy=0;entryX=0;entryY=0.5;entryDx=0;entryDy=0;" parent="1" source="15" target="3" edge="1">
                    <mxGeometry width="50" height="50" relative="1" as="geometry">
                        <mxPoint x="290" y="330" as="sourcePoint"/>
                        <mxPoint x="340" y="280" as="targetPoint"/>
                    </mxGeometry>
                </mxCell>
                <mxCell id="19" value="" style="endArrow=none;html=1;strokeWidth=3;exitX=0.5;exitY=0;exitDx=0;exitDy=0;entryX=0.5;entryY=1;entryDx=0;entryDy=0;" parent="1" source="16" target="3" edge="1">
                    <mxGeometry width="50" height="50" relative="1" as="geometry">
                        <mxPoint x="290" y="330" as="sourcePoint"/>
                        <mxPoint x="340" y="280" as="targetPoint"/>
                    </mxGeometry>
                </mxCell>
                <mxCell id="20" value="" style="endArrow=none;html=1;strokeWidth=3;exitX=0;exitY=0.5;exitDx=0;exitDy=0;entryX=1;entryY=0.5;entryDx=0;entryDy=0;" parent="1" source="17" target="3" edge="1">
                    <mxGeometry width="50" height="50" relative="1" as="geometry">
                        <mxPoint x="290" y="330" as="sourcePoint"/>
                        <mxPoint x="340" y="280" as="targetPoint"/>
                    </mxGeometry>
                </mxCell>
                <mxCell id="21" value="&lt;table border=&quot;1&quot; width=&quot;100%&quot; cellpadding=&quot;4&quot; style=&quot;width: 100% ; height: 100% ; border-collapse: collapse&quot;&gt;&lt;tbody&gt;&lt;tr&gt;&lt;td&gt;Category Table&lt;/td&gt;&lt;td&gt;&lt;br&gt;&lt;/td&gt;&lt;td&gt;&lt;br&gt;&lt;/td&gt;&lt;td&gt;&lt;br&gt;&lt;/td&gt;&lt;/tr&gt;&lt;tr style=&quot;background-color: #a7c942 ; color: #ffffff ; border: 1px solid #98bf21&quot;&gt;&lt;th align=&quot;left&quot;&gt;Column Name&lt;/th&gt;&lt;th align=&quot;left&quot;&gt;Data Type&lt;/th&gt;&lt;th align=&quot;left&quot;&gt;Not Null&lt;/th&gt;&lt;td&gt;Unique&lt;/td&gt;&lt;/tr&gt;&lt;tr style=&quot;border: 1px solid #98bf21&quot;&gt;&lt;td&gt;id&lt;span style=&quot;white-space: pre&quot;&gt;&#9;&lt;/span&gt;&lt;/td&gt;&lt;td&gt;SERIAL&lt;span style=&quot;white-space: pre&quot;&gt;&#9;&lt;/span&gt;&lt;/td&gt;&lt;td&gt;Yes&lt;span style=&quot;white-space: pre&quot;&gt;&#9;&lt;/span&gt;&lt;/td&gt;&lt;td&gt;Yes&lt;/td&gt;&lt;/tr&gt;&lt;tr style=&quot;background-color: #eaf2d3 ; border: 1px solid #98bf21&quot;&gt;&lt;td&gt;Name&lt;span style=&quot;white-space: pre&quot;&gt;&#9;&lt;/span&gt;&lt;/td&gt;&lt;td&gt;Text&lt;span style=&quot;white-space: pre&quot;&gt;&#9;&lt;/span&gt;&lt;/td&gt;&lt;td&gt;Yes&lt;span style=&quot;white-space: pre&quot;&gt;&#9;&lt;/span&gt;&lt;/td&gt;&lt;td&gt;Yes&lt;/td&gt;&lt;/tr&gt;&lt;tr style=&quot;border: 1px solid #98bf21&quot;&gt;&lt;td&gt;Description&lt;/td&gt;&lt;td&gt;Text&lt;span style=&quot;white-space: pre&quot;&gt;&#9;&lt;/span&gt;&lt;/td&gt;&lt;td&gt;No&lt;span style=&quot;white-space: pre&quot;&gt;&#9;&lt;/span&gt;&lt;/td&gt;&lt;td&gt;No&lt;/td&gt;&lt;/tr&gt;&lt;tr style=&quot;background-color: #eaf2d3 ; border: 1px solid #98bf21&quot;&gt;&lt;td&gt;Picture&lt;/td&gt;&lt;td&gt;Text&lt;/td&gt;&lt;td&gt;No&lt;span style=&quot;white-space: pre&quot;&gt;&#9;&lt;/span&gt;&lt;/td&gt;&lt;td&gt;No&lt;/td&gt;&lt;/tr&gt;&lt;/tbody&gt;&lt;/table&gt;" style="text;html=1;strokeColor=#c0c0c0;fillColor=#ffffff;overflow=fill;rounded=0;fontColor=#000000;" vertex="1" parent="1">
                    <mxGeometry x="590" y="20" width="440" height="160" as="geometry"/>
                </mxCell>
                <mxCell id="22" value="&lt;table border=&quot;1&quot; width=&quot;100%&quot; cellpadding=&quot;4&quot; style=&quot;width: 100% ; height: 100% ; border-collapse: collapse&quot;&gt;&lt;tbody&gt;&lt;tr&gt;&lt;td&gt;Product Table&lt;/td&gt;&lt;td&gt;&lt;br&gt;&lt;/td&gt;&lt;td&gt;&lt;br&gt;&lt;/td&gt;&lt;td&gt;&lt;br&gt;&lt;/td&gt;&lt;/tr&gt;&lt;tr style=&quot;background-color: #a7c942 ; color: #ffffff ; border: 1px solid #98bf21&quot;&gt;&lt;th align=&quot;left&quot;&gt;Column Name&lt;/th&gt;&lt;th align=&quot;left&quot;&gt;Data Type&lt;/th&gt;&lt;th align=&quot;left&quot;&gt;Not Null&lt;/th&gt;&lt;td&gt;Unique&lt;/td&gt;&lt;/tr&gt;&lt;tr style=&quot;border: 1px solid #98bf21&quot;&gt;&lt;td&gt;id&lt;/td&gt;&lt;td&gt;SERIAL&lt;span style=&quot;white-space: pre&quot;&gt;&#9;&lt;/span&gt;&lt;/td&gt;&lt;td&gt;Yes&lt;span style=&quot;white-space: pre&quot;&gt;&#9;&lt;/span&gt;&lt;/td&gt;&lt;td&gt;Yes&lt;/td&gt;&lt;/tr&gt;&lt;tr style=&quot;background-color: #eaf2d3 ; border: 1px solid #98bf21&quot;&gt;&lt;td&gt;Name&lt;span style=&quot;white-space: pre&quot;&gt;&#9;&lt;/span&gt;&lt;/td&gt;&lt;td&gt;Text&lt;span style=&quot;white-space: pre&quot;&gt;&#9;&lt;/span&gt;&lt;/td&gt;&lt;td&gt;No&lt;/td&gt;&lt;td&gt;No&lt;/td&gt;&lt;/tr&gt;&lt;tr style=&quot;border: 1px solid #98bf21&quot;&gt;&lt;td&gt;Discontinued&lt;/td&gt;&lt;td&gt;Text&lt;span style=&quot;white-space: pre&quot;&gt;&#9;&lt;/span&gt;&lt;/td&gt;&lt;td&gt;No&lt;span style=&quot;white-space: pre&quot;&gt;&#9;&lt;/span&gt;&lt;/td&gt;&lt;td&gt;No&lt;/td&gt;&lt;/tr&gt;&lt;tr style=&quot;background-color: #eaf2d3 ; border: 1px solid #98bf21&quot;&gt;&lt;td&gt;category_id&lt;span style=&quot;white-space: pre&quot;&gt;&#9;&lt;/span&gt;&lt;/td&gt;&lt;td&gt;INT&lt;/td&gt;&lt;td&gt;&lt;span style=&quot;white-space: pre&quot;&gt;&#9;&lt;/span&gt;&lt;/td&gt;&lt;td&gt;&lt;br&gt;&lt;/td&gt;&lt;/tr&gt;&lt;/tbody&gt;&lt;/table&gt;" style="text;html=1;strokeColor=#c0c0c0;fillColor=#ffffff;overflow=fill;rounded=0;fontColor=#000000;" vertex="1" parent="1">
                    <mxGeometry x="590" y="210" width="440" height="160" as="geometry"/>
                </mxCell>
                <mxCell id="23" value="" style="endArrow=classic;html=1;fontColor=#000000;strokeWidth=1;entryX=0.5;entryY=1;entryDx=0;entryDy=0;" edge="1" parent="1" target="4">
                    <mxGeometry width="50" height="50" relative="1" as="geometry">
                        <mxPoint x="290" y="420" as="sourcePoint"/>
                        <mxPoint x="340" y="370" as="targetPoint"/>
                    </mxGeometry>
                </mxCell>
                <mxCell id="24" value="&lt;h1&gt;&lt;font color=&quot;#ffffff&quot;&gt;One to many relationship&lt;/font&gt;&lt;/h1&gt;&lt;div&gt;&lt;font color=&quot;#ffffff&quot;&gt;A category categorizes 0 or more products, and a product may be categorized by at most one category&lt;/font&gt;&lt;/div&gt;" style="text;html=1;strokeColor=none;fillColor=none;spacing=5;spacingTop=-20;whiteSpace=wrap;overflow=hidden;rounded=0;fontColor=#000000;" vertex="1" parent="1">
                    <mxGeometry x="590" y="390" width="450" height="120" as="geometry"/>
                </mxCell>
            </root>
        </mxGraphModel>
    </diagram>
</mxfile>